<?xml version="1.0" encoding="UTF-8" standalone="no"?>
<svg
   width="45" height="45" viewBox="0 0 45 45"
   xmlns="http://www.w3.org/2000/svg" xmlns:svg="http://www.w3.org/2000/svg">
  <path
     d="M 22.5,0 C 10.06443,0 0,10.063216 0,22.5 0,34.935646 10.063026,45 22.5,45 34.935646,45 45,34.936784 45,22.5 45,10.064354 34.936784,0 22.5,0 Z m 8.106853,24.99769 -10.572716,6.108989 c -0.891918,0.515417 -1.991681,0.51629 -2.885078,7.96e-4 C 16.256268,30.592286 15.70633,29.639786 15.70633,28.609102 V 16.390973 c 0,-1.030759 0.550014,-1.983145 1.442729,-2.498373 0.44611,-0.257576 0.94404,-0.38625 1.441932,-0.38625 0.498347,0 0.996769,0.128978 1.443146,0.386857 l 10.572829,6.109027 c 0.891995,0.515379 1.441401,1.467424 1.441401,2.49769 0,1.030342 -0.54952,1.982273 -1.441514,2.497766 z"
     style="display:inline;fill:#cc92b7;fill-opacity:1;stroke-width:0.0878907" />
</svg>