<?xml version="1.0" encoding="UTF-8" standalone="no"?>
<svg
  width="64" height="64" viewBox="0 0 64 64"
  xmlns="http://www.w3.org/2000/svg" xmlns:svg="http://www.w3.org/2000/svg">
  <path
    d="M 32.010329,0.02065824 C 14.329913,0.02065824 0.02065824,14.328164 0.02065824,32.010329 0.02065824,49.69087 14.327914,64 32.010329,64 49.69087,64 64,49.692495 64,32.010329 64,14.329788 49.692495,0.02065824 32.010329,0.02065824 Z M 43.536357,35.561433 28.504461,44.247003 c -1.26809,0.732763 -2.831711,0.734013 -4.101925,0.0011 C 23.133195,43.515589 22.351323,42.161401 22.351323,40.696 V 23.324759 c 0,-1.465527 0.781997,-2.81959 2.051213,-3.552103 0.634295,-0.366132 1.342191,-0.549198 2.050088,-0.549198 0.708521,0 1.417167,0.183441 2.051837,0.550072 l 15.032021,8.685571 c 1.268216,0.732763 2.049339,2.086326 2.049339,3.551103 0,1.464902 -0.781248,2.81834 -2.049464,3.551229 z"
    style="fill:#cc92b7" />
</svg>